<svg width="418.000000" height="659.000000" viewBox="0 0 418 659" fill="none" xmlns="http://www.w3.org/2000/svg" xmlns:xlink="http://www.w3.org/1999/xlink">
	<desc>
			Created with Pixso.
	</desc>
	<defs>
		<filter id="filter_0_4914_dd" x="-0.432129" y="-0.430542" width="417.649414" height="658.861084" filterUnits="userSpaceOnUse" color-interpolation-filters="sRGB">
			<feFlood flood-opacity="0" result="BackgroundImageFix"/>
			<feColorMatrix in="SourceAlpha" type="matrix" values="0 0 0 0 0 0 0 0 0 0 0 0 0 0 0 0 0 0 127 0" result="hardAlpha"/>
			<feOffset dx="25" dy="25"/>
			<feGaussianBlur stdDeviation="26.6667"/>
			<feComposite in2="hardAlpha" operator="out" k2="-1" k3="1"/>
			<feColorMatrix type="matrix" values="0 0 0 0 0.21176 0 0 0 0 0.32549 0 0 0 0 0.41961 0 0 0 0.3 0"/>
			<feBlend mode="normal" in2="BackgroundImageFix" result="effect_dropShadow_1"/>
			<feBlend mode="normal" in="SourceGraphic" in2="effect_dropShadow_1" result="shape"/>
		</filter>
		<clipPath id="clip0_4922">
			<rect id="Screen" width="233.000000" height="465.000000" transform="translate(67.074219 66.444458)" fill="white" fill-opacity="0"/>
		</clipPath>
		<filter id="filter_0_4928_dd" x="69.000000" y="216.000000" width="248.000000" height="117.000000" filterUnits="userSpaceOnUse" color-interpolation-filters="sRGB">
			<feFlood flood-opacity="0" result="BackgroundImageFix"/>
			<feColorMatrix in="SourceAlpha" type="matrix" values="0 0 0 0 0 0 0 0 0 0 0 0 0 0 0 0 0 0 127 0" result="hardAlpha"/>
			<feMorphology radius="-10" in="" result="BackgroundImageFix"/>
			<feOffset dx="10" dy="10"/>
			<feGaussianBlur stdDeviation="8.33333"/>
			<feComposite in2="hardAlpha" operator="out" k2="-1" k3="1"/>
			<feColorMatrix type="matrix" values="0 0 0 0 0.21176 0 0 0 0 0.32549 0 0 0 0 0.41961 0 0 0 0.25 0"/>
			<feBlend mode="normal" in2="BackgroundImageFix" result="effect_dropShadow_1"/>
			<feBlend mode="normal" in="SourceGraphic" in2="effect_dropShadow_1" result="shape"/>
		</filter>
		<clipPath id="clip0_4929">
			<rect id="Group 28" width="187.000000" height="11.000000" transform="translate(90.000000 237.000000)" fill="white" fill-opacity="0"/>
		</clipPath>
		<clipPath id="clip0_4927">
			<rect id="Group 29" width="218.000000" height="87.000000" transform="translate(74.000000 221.000000)" fill="white" fill-opacity="0"/>
		</clipPath>
		<linearGradient id="paint_linear_0_4916_0" x1="62.014648" y1="54.000000" x2="62.014648" y2="66.323944" gradientUnits="userSpaceOnUse">
			<stop stop-color="#454545"/>
			<stop offset="0.226279" stop-color="#999999"/>
			<stop offset="1.000000" stop-color="#FFFFFF"/>
		</linearGradient>
		<linearGradient id="paint_linear_0_4917_0" x1="312.103394" y1="139.747864" x2="302.642456" y2="139.747864" gradientUnits="userSpaceOnUse">
			<stop stop-color="#FFFFFF" stop-opacity="0.000000"/>
			<stop offset="0.222178" stop-color="#BABABA"/>
			<stop offset="0.546780" stop-color="#FFFFFF" stop-opacity="0.000000"/>
			<stop offset="1.000000" stop-color="#FFFFFF" stop-opacity="0.000000"/>
		</linearGradient>
		<linearGradient id="paint_linear_0_4918_0" x1="54.567978" y1="139.485748" x2="64.044052" y2="139.485748" gradientUnits="userSpaceOnUse">
			<stop stop-color="#FFFFFF" stop-opacity="0.000000"/>
			<stop offset="0.222178" stop-color="#BABABA"/>
			<stop offset="0.546780" stop-color="#FFFFFF" stop-opacity="0.000000"/>
			<stop offset="1.000000" stop-color="#FFFFFF" stop-opacity="0.000000"/>
		</linearGradient>
		<linearGradient id="paint_linear_0_4925_0" x1="67.906952" y1="66.444458" x2="67.906952" y2="527.824341" gradientUnits="userSpaceOnUse">
			<stop stop-color="#9CB6CD"/>
			<stop offset="0.420564" stop-color="#9AB3CA"/>
			<stop offset="0.716592" stop-color="#557496"/>
			<stop offset="1.000000" stop-color="#475178"/>
		</linearGradient>
	</defs>
	<g filter="url(#filter_0_4914_dd)">
		<path id="body" d="M87.77 54.56L279 54.56C297.35 54.56 312.21 68.8 312.21 86.36L312.21 521.63C312.21 539.19 297.35 553.43 279 553.43L87.77 553.43C69.43 553.43 54.56 539.19 54.56 521.63L54.56 86.36C54.56 68.8 69.43 54.56 87.77 54.56Z" fill="#213648" fill-opacity="1.000000" fill-rule="evenodd"/>
	</g>
	<path id="body" d="M279 54.56C297.35 54.56 312.21 68.8 312.21 86.36L312.21 521.63C312.21 539.19 297.35 553.43 279 553.43L87.77 553.43C69.43 553.43 54.56 539.19 54.56 521.63L54.56 86.36C54.56 68.8 69.43 54.56 87.77 54.56L279 54.56Z" stroke="#979797" stroke-opacity="1.000000" stroke-width="0.000000"/>
	<g opacity="0.595562">
		<path id="reflect-frame-top" d="M279.74 54L86.92 54C77.91 54.54 69.61 58.65 62.01 66.32C66.9 62.05 75.62 56.34 87.15 56.34C87.15 56.34 271.82 56.34 279.51 56.34C291.04 56.34 299.76 62.05 304.65 66.32C297.05 58.65 288.75 54.54 279.74 54Z" fill="url(#paint_linear_0_4916_0)" fill-opacity="0.650000" fill-rule="evenodd"/>
		<path id="reflect-frame-top" d="M86.92 54C77.91 54.54 69.61 58.65 62.01 66.32C66.9 62.05 75.62 56.34 87.15 56.34C87.15 56.34 271.82 56.34 279.51 56.34C291.04 56.34 299.76 62.05 304.65 66.32C297.05 58.65 288.75 54.54 279.74 54L86.92 54Z" stroke="#979797" stroke-opacity="1.000000" stroke-width="0.000000"/>
	</g>
	<g opacity="0.750000">
		<path id="reflect-frame-right" d="M307 516.67L307 88.98C307 77.5 302.78 73.26 300.26 70.54C297.75 67.81 297.64 66.42 301.25 68.48C304.87 70.54 312.1 76.53 312.1 88.98L312.1 516.67C312.1 529.12 304.87 535.11 301.25 537.16C297.64 539.22 297.75 537.83 300.26 535.11C302.78 532.38 307 528.14 307 516.67Z" fill="url(#paint_linear_0_4917_0)" fill-opacity="1.000000" fill-rule="evenodd"/>
		<path id="reflect-frame-right" d="M307 88.98C307 77.5 302.78 73.26 300.26 70.54C297.75 67.81 297.64 66.42 301.25 68.48C304.87 70.54 312.1 76.53 312.1 88.98L312.1 516.67C312.1 529.12 304.87 535.11 301.25 537.16C297.64 539.22 297.75 537.83 300.26 535.11C302.78 532.38 307 528.14 307 516.67L307 88.98Z" stroke="#979797" stroke-opacity="1.000000" stroke-width="0.000000"/>
	</g>
	<g opacity="0.750000">
		<path id="reflect-frame-left" d="M59.67 516.67L59.67 88.98C59.67 77.5 63.88 73.26 66.4 70.54C68.92 67.81 69.02 66.42 65.41 68.48C61.79 70.54 54.56 76.53 54.56 88.98L54.56 516.67C54.56 529.12 61.79 535.11 65.41 537.16C69.02 539.22 68.92 537.83 66.4 535.11C63.88 532.38 59.67 528.14 59.67 516.67Z" fill="url(#paint_linear_0_4918_0)" fill-opacity="1.000000" fill-rule="evenodd"/>
		<path id="reflect-frame-left" d="M59.67 88.98C59.67 77.5 63.88 73.26 66.4 70.54C68.92 67.81 69.02 66.42 65.41 68.48C61.79 70.54 54.56 76.53 54.56 88.98L54.56 516.67C54.56 529.12 61.79 535.11 65.41 537.16C69.02 539.22 68.92 537.83 66.4 535.11C63.88 532.38 59.67 528.14 59.67 516.67L59.67 88.98Z" stroke="#979797" stroke-opacity="1.000000" stroke-width="0.000000"/>
	</g>
	<path id="vol+" d="M52 157.55C52 156.45 52.89 155.55 54 155.55L54.96 155.55C56.06 155.55 56.96 156.45 56.96 157.55L56.96 217.9C56.96 219.01 56.06 219.9 54.96 219.9L54 219.9C52.89 219.9 52 219.01 52 217.9L52 157.55Z" fill="#2E423C" fill-opacity="1.000000" fill-rule="evenodd"/>
	<path id="vol+" d="M54.96 155.55C56.06 155.55 56.96 156.45 56.96 157.55L56.96 217.9C56.96 219.01 56.06 219.9 54.96 219.9L54 219.9C52.89 219.9 52 219.01 52 217.9L52 157.55C52 156.45 52.89 155.55 54 155.55L54.96 155.55Z" stroke="#979797" stroke-opacity="1.000000" stroke-width="0.000000"/>
	<path id="power" d="M309.53 210.04C309.53 208.93 310.43 208.04 311.53 208.04L312.5 208.04C313.6 208.04 314.5 208.93 314.5 210.04L314.5 252.99C314.5 254.09 313.6 254.99 312.5 254.99L311.53 254.99C310.43 254.99 309.53 254.09 309.53 252.99L309.53 210.04Z" fill="#2E423C" fill-opacity="1.000000" fill-rule="evenodd"/>
	<path id="power" d="M312.5 208.04C313.6 208.04 314.5 208.93 314.5 210.04L314.5 252.99C314.5 254.09 313.6 254.99 312.5 254.99L311.53 254.99C310.43 254.99 309.53 254.09 309.53 252.99L309.53 210.04C309.53 208.93 310.43 208.04 311.53 208.04L312.5 208.04Z" stroke="#979797" stroke-opacity="1.000000" stroke-width="0.000000"/>
	<rect id="Screen" width="233.000000" height="465.000000" transform="translate(67.074219 66.444458)" fill="#FFFFFF" fill-opacity="0"/>
	<g clip-path="url(#clip0_4922)">
		<path id="Screen Mask" d="M160.67 66.44L86.26 66.44C75.16 66.44 67.07 74 67.07 83.88L67.07 506.27C67.07 519.15 79.57 530.56 93.71 530.56L273.04 530.56C286.66 530.56 299.68 519.06 299.68 506.27L299.68 85.02C299.68 73.18 290.89 66.51 280.49 66.44L204.9 66.44C204.61 66.49 199.42 68.62 197.23 74C195.03 79.38 190.62 83.67 185.78 83.67L180.17 83.67C177.87 83.67 171.82 81.44 168.76 74C165.69 66.56 160.96 66.49 160.67 66.44Z" fill="#FFFFFF" fill-opacity="1.000000" fill-rule="evenodd"/>
		<path id="Screen Mask" d="M86.26 66.44C75.16 66.44 67.07 74 67.07 83.88L67.07 506.27C67.07 519.15 79.57 530.56 93.71 530.56L273.04 530.56C286.66 530.56 299.68 519.06 299.68 506.27L299.68 85.02C299.68 73.18 290.89 66.51 280.49 66.44L204.9 66.44C204.61 66.49 199.42 68.62 197.23 74C195.03 79.38 190.62 83.67 185.78 83.67L180.17 83.67C177.87 83.67 171.82 81.44 168.76 74C165.69 66.56 160.96 66.49 160.67 66.44L86.26 66.44Z" stroke="#979797" stroke-opacity="0" stroke-width="0.000000"/>
		<mask id="mask0_4923" mask-type="alpha" maskUnits="userSpaceOnUse" x="67.074219" y="66.444458" width="232.611389" height="464.123016">
			<path id="Screen Mask" d="M160.67 66.44L86.26 66.44C75.16 66.44 67.07 74 67.07 83.88L67.07 506.27C67.07 519.15 79.57 530.56 93.71 530.56L273.04 530.56C286.66 530.56 299.68 519.06 299.68 506.27L299.68 85.02C299.68 73.18 290.89 66.51 280.49 66.44L204.9 66.44C204.61 66.49 199.42 68.62 197.23 74C195.03 79.38 190.62 83.67 185.78 83.67L180.17 83.67C177.87 83.67 171.82 81.44 168.76 74C165.69 66.56 160.96 66.49 160.67 66.44Z" fill="#FFFFFF" fill-opacity="1.000000" fill-rule="evenodd"/>
			<path id="Screen Mask" d="M86.26 66.44C75.16 66.44 67.07 74 67.07 83.88L67.07 506.27C67.07 519.15 79.57 530.56 93.71 530.56L273.04 530.56C286.66 530.56 299.68 519.06 299.68 506.27L299.68 85.02C299.68 73.18 290.89 66.51 280.49 66.44L204.9 66.44C204.61 66.49 199.42 68.62 197.23 74C195.03 79.38 190.62 83.67 185.78 83.67L180.17 83.67C177.87 83.67 171.82 81.44 168.76 74C165.69 66.56 160.96 66.49 160.67 66.44L86.26 66.44Z" stroke="#979797" stroke-opacity="0" stroke-width="0.000000"/>
		</mask>
		<g mask="url(#mask0_4923)">
			<rect id="Rectangle" x="67.000000" y="66.444458" width="233.000000" height="465.000000" fill="url(#paint_linear_0_4925_0)" fill-opacity="1.000000"/>
			<rect id="Rectangle" x="67.000000" y="66.444458" width="233.000000" height="465.000000" stroke="#979797" stroke-opacity="0" stroke-width="0.000000"/>
		</g>
		<g mask="url(#mask0_4923)">
			<path id="12:49" d="M209.65 179.47C209.62 174.79 213.13 171.38 218.33 171.4C223.12 171.43 227.62 174.32 227.63 182.75C227.65 190.65 223.93 195.32 218.16 195.32C213.51 195.32 210.33 192.35 209.87 188.43L214.72 188.43C215.1 190.12 216.38 191.1 218.16 191.1C221.2 191.1 222.8 188.29 222.81 183.68L222.65 183.68C221.62 185.72 219.35 186.96 216.79 186.96C212.66 186.96 209.65 183.82 209.65 179.47ZM175.13 195L158.54 195L158.54 191.45L166.83 183.78C168.94 181.75 170.08 180.47 170.08 178.62C170.08 176.57 168.55 175.3 166.51 175.3C164.38 175.3 162.97 176.67 162.98 178.89L158.31 178.89C158.3 174.32 161.65 171.4 166.54 171.4C171.53 171.4 174.83 174.25 174.83 178.29C174.83 180.94 173.54 183.12 168.76 187.49L165.36 190.82L165.36 190.97L175.13 190.97L175.13 195ZM148.38 171.72L153 171.72L153 195L148.09 195L148.09 176.39L147.95 176.39L142.62 179.74L142.62 175.37L148.38 171.72ZM199.04 190.9L187.87 190.9L187.87 187.03L197.59 171.72L203.74 171.72L203.74 186.96L206.63 186.96L206.63 190.9L203.74 190.9L203.74 195L199.04 195L199.04 190.9ZM222.33 179.32C222.3 177.11 220.63 175.27 218.37 175.27C216.08 175.27 214.4 177.07 214.41 179.34C214.43 181.62 216.05 183.39 218.33 183.39C220.58 183.39 222.33 181.55 222.33 179.32ZM184.31 178.15C184.29 179.67 183.03 180.88 181.57 180.88C180.07 180.88 178.84 179.67 178.84 178.15C178.84 176.67 180.07 175.45 181.57 175.45C183.03 175.45 184.29 176.67 184.31 178.15ZM192.83 186.96L199.13 186.96L199.13 177.09L198.95 177.09L192.83 186.78L192.83 186.96ZM184.31 189.57C184.29 191.07 183.03 192.29 181.57 192.29C180.07 192.29 178.84 191.07 178.84 189.57C178.84 188.07 180.07 186.86 181.57 186.86C183.03 186.86 184.29 188.07 184.31 189.57Z" fill="#FFFFFF" fill-opacity="1.000000" fill-rule="evenodd"/>
		</g>
	</g>
	<rect id="Screen" width="233.000000" height="465.000000" transform="translate(67.074219 66.444458)" stroke="#979797" stroke-opacity="1.000000" stroke-width="1.000000"/>
	<rect id="Group 29" width="218.000000" height="87.000000" transform="translate(74.000000 221.000000)" fill="#FFFFFF" fill-opacity="0"/>
	<g clip-path="url(#clip0_4927)">
		<g filter="url(#filter_0_4928_dd)">
			<rect id="Rectangle" x="74.000000" y="221.000000" rx="5.000000" width="218.000000" height="87.000000" fill="#FBFCFE" fill-opacity="1.000000"/>
		</g>
		<rect id="Rectangle" x="74.000000" y="221.000000" rx="5.000000" width="218.000000" height="87.000000" stroke="#979797" stroke-opacity="0" stroke-width="0.000000"/>
		<rect id="Group 28" width="187.000000" height="11.000000" transform="translate(90.000000 237.000000)" fill="#FFFFFF" fill-opacity="0"/>
		<g clip-path="url(#clip0_4929)">
			<path id="PayAPI" d="M92.17 247L90.63 247L90.63 239.72L93.5 239.72C95.15 239.72 96.1 240.74 96.1 242.19C96.1 243.64 95.13 244.64 93.46 244.64L92.17 244.64L92.17 247ZM109.53 245.34L108.99 247L107.35 247L109.86 239.72L111.84 239.72L114.34 247L112.7 247L112.16 245.34L109.53 245.34ZM116.76 247L115.22 247L115.22 239.72L118.09 239.72C119.74 239.72 120.7 240.74 120.7 242.19C120.7 243.64 119.72 244.64 118.05 244.64L116.76 244.64L116.76 247ZM121.7 239.72L123.23 239.72L123.23 247L121.7 247L121.7 239.72ZM92.17 240.98L92.17 243.4L93.21 243.4C94.09 243.4 94.52 242.91 94.52 242.19C94.52 241.46 94.09 240.98 93.2 240.98L92.17 240.98ZM116.76 240.98L116.76 243.4L117.8 243.4C118.68 243.4 119.11 242.91 119.11 242.19C119.11 241.46 118.68 240.98 117.79 240.98L116.76 240.98ZM110.82 241.39L109.92 244.14L111.77 244.14L110.88 241.39L110.82 241.39ZM100.08 246.24C99.81 246.75 99.29 247.1 98.48 247.1C97.44 247.1 96.68 246.55 96.68 245.47C96.68 244.25 97.65 243.89 98.72 243.79C99.67 243.7 100.05 243.65 100.05 243.3L100.05 243.28C100.05 242.83 99.75 242.57 99.23 242.57C98.69 242.57 98.37 242.84 98.27 243.2L96.87 243.09C97.08 242.1 97.94 241.47 99.24 241.47C100.46 241.47 101.56 242.02 101.56 243.32L101.56 247L100.12 247L100.12 246.24L100.08 246.24ZM105.5 247.58C105.19 248.47 104.59 249.04 103.47 249.04C103.09 249.04 102.73 248.98 102.52 248.89L102.86 247.75C103.39 247.92 103.77 247.89 103.97 247.38L104.06 247.15L102.1 241.54L103.69 241.54L104.82 245.55L104.88 245.55L106.02 241.54L107.62 241.54L105.5 247.58ZM98.12 245.42C98.12 245.84 98.45 246.06 98.92 246.06C99.58 246.06 100.06 245.62 100.06 245.04L100.06 244.47C99.87 244.59 99.33 244.67 99 244.71C98.47 244.79 98.12 245 98.12 245.42Z" fill="#BA4270" fill-opacity="1.000000" fill-rule="evenodd"/>
			<g opacity="0.500000">
				<path id="Just Now" d="M238.43 244.92L238.43 239.72L239.31 239.72L239.31 244.92C239.31 246.32 238.5 247.1 237.24 247.1C236.05 247.1 235.18 246.41 235.18 245.29L236.05 245.29C236.05 245.91 236.55 246.31 237.24 246.31C238 246.31 238.43 245.83 238.43 244.92ZM263.46 239.72L264.33 239.72L264.33 247L263.48 247L259.51 241.29L259.44 241.29L259.44 247L258.56 247L258.56 239.72L259.41 239.72L263.39 245.45L263.46 245.45L263.46 239.72ZM253.21 241.54L254.37 241.54L254.37 242.25L253.21 242.25L253.21 245.43C253.21 246.14 253.56 246.26 253.93 246.26C254.11 246.26 254.23 246.23 254.3 246.21L254.47 246.97C254.36 247.01 254.16 247.07 253.85 247.07C253.14 247.07 252.37 246.61 252.37 245.66L252.37 242.25L251.54 242.25L251.54 241.54L252.37 241.54L252.37 240.24L253.21 240.24L253.21 241.54ZM248.7 241.47C249.78 241.47 250.37 241.99 250.64 242.76L249.88 242.97C249.74 242.6 249.43 242.19 248.7 242.19C248.04 242.19 247.54 242.54 247.54 243C247.54 243.42 247.83 243.64 248.48 243.8L249.29 244C250.26 244.24 250.73 244.72 250.73 245.47C250.73 246.42 249.87 247.11 248.6 247.11C247.49 247.11 246.72 246.61 246.53 245.69L247.33 245.49C247.47 246.08 247.9 246.37 248.59 246.37C249.37 246.37 249.87 245.99 249.87 245.52C249.87 245.14 249.61 244.88 249.06 244.75L248.15 244.54C247.15 244.3 246.7 243.8 246.7 243.05C246.7 242.12 247.55 241.47 248.7 241.47ZM270.66 244.3C270.66 245.99 269.67 247.11 268.19 247.11C266.72 247.11 265.72 245.99 265.72 244.3C265.72 242.59 266.72 241.47 268.19 241.47C269.67 241.47 270.66 242.59 270.66 244.3ZM242.99 246.26C243.62 246.26 244.4 245.79 244.4 244.77L244.4 241.54L245.24 241.54L245.24 247L244.4 247L244.4 246.07L244.34 246.07C244.09 246.63 243.55 247.07 242.72 247.07C241.7 247.07 240.96 246.4 240.96 245.01L240.96 241.54L241.8 241.54L241.8 244.95C241.8 245.75 242.3 246.26 242.99 246.26ZM273.82 247L272.99 247L271.33 241.54L272.21 241.54L273.39 245.72L273.45 245.72L274.61 241.54L275.51 241.54L276.66 245.7L276.72 245.7L277.89 241.54L278.77 241.54L277.11 247L276.29 247L275.09 242.81L275.01 242.81L273.82 247ZM266.56 244.3C266.56 245.39 267.07 246.36 268.19 246.36C269.31 246.36 269.82 245.39 269.82 244.3C269.82 243.2 269.31 242.22 268.19 242.22C267.07 242.22 266.56 243.2 266.56 244.3Z" fill="#36536B" fill-opacity="1.000000" fill-rule="evenodd"/>
			</g>
		</g>
		<path id="The payment has been" d="M92.77 256.5L90.48 256.5L90.48 255.72L95.93 255.72L95.93 256.5L93.64 256.5L93.64 263L92.77 263L92.77 256.5ZM99.46 258.22C98.63 258.22 98.02 258.76 98.02 259.71L98.02 263L97.18 263L97.18 255.72L98.02 255.72L98.02 258.39L98.09 258.39C98.35 257.83 98.84 257.47 99.7 257.47C100.81 257.47 101.56 258.13 101.56 259.53L101.56 263L100.72 263L100.72 259.59C100.72 258.72 100.24 258.22 99.46 258.22ZM157.92 258.22C157.09 258.22 156.49 258.76 156.49 259.71L156.49 263L155.65 263L155.65 255.72L156.49 255.72L156.49 258.39L156.56 258.39C156.81 257.83 157.3 257.47 158.16 257.47C159.28 257.47 160.02 258.13 160.02 259.53L160.02 263L159.19 263L159.19 259.59C159.19 258.72 158.71 258.22 157.92 258.22ZM176.16 263L175.35 263L175.35 255.72L176.19 255.72L176.19 258.41L176.26 258.41C176.45 258.12 176.77 257.47 177.84 257.47C179.21 257.47 180.17 258.56 180.17 260.28C180.17 262.02 179.21 263.11 177.85 263.11C176.8 263.11 176.45 262.46 176.26 262.16L176.16 262.16L176.16 263ZM248.7 262.16C248.52 262.46 248.16 263.11 247.11 263.11C245.75 263.11 244.8 262.02 244.8 260.28C244.8 258.56 245.75 257.47 247.13 257.47C248.19 257.47 248.52 258.12 248.7 258.41L248.78 258.41L248.78 255.72L249.61 255.72L249.61 263L248.8 263L248.8 262.16L248.7 262.16ZM258.83 256.5L256.54 256.5L256.54 255.72L262 255.72L262 256.5L259.71 256.5L259.71 263L258.83 263L258.83 256.5ZM265.52 258.22C264.69 258.22 264.09 258.76 264.09 259.71L264.09 263L263.25 263L263.25 255.72L264.09 255.72L264.09 258.39L264.16 258.39C264.41 257.83 264.9 257.47 265.76 257.47C266.88 257.47 267.62 258.13 267.62 259.53L267.62 263L266.79 263L266.79 259.59C266.79 258.72 266.31 258.22 265.52 258.22ZM150.41 257.54L151.57 257.54L151.57 258.25L150.41 258.25L150.41 261.43C150.41 262.14 150.76 262.26 151.13 262.26C151.32 262.26 151.43 262.23 151.5 262.21L151.67 262.97C151.56 263.01 151.36 263.07 151.05 263.07C150.34 263.07 149.57 262.61 149.57 261.66L149.57 258.25L148.75 258.25L148.75 257.54L149.57 257.54L149.57 256.24L150.41 256.24L150.41 257.54ZM208.69 263L207.85 263L207.85 257.54L208.66 257.54L208.66 258.36L208.72 258.36C208.92 257.82 209.48 257.46 210.14 257.46C210.26 257.46 210.48 257.46 210.58 257.47L210.58 258.32C210.52 258.31 210.29 258.27 210.07 258.27C209.27 258.27 208.69 258.81 208.69 259.54L208.69 263ZM107.55 261.73C107.3 262.56 106.49 263.11 105.38 263.11C103.8 263.11 102.84 261.99 102.84 260.31C102.84 258.64 103.82 257.47 105.29 257.47C106.43 257.47 107.64 258.17 107.64 260.2L107.64 260.55L103.68 260.55C103.72 261.72 104.4 262.35 105.38 262.35C106.04 262.35 106.53 262.07 106.74 261.5L107.55 261.73ZM112.57 265.04L111.73 265.04L111.73 257.54L112.54 257.54L112.54 258.41L112.64 258.41C112.82 258.12 113.15 257.47 114.21 257.47C115.59 257.47 116.54 258.56 116.54 260.28C116.54 262.02 115.59 263.11 114.23 263.11C113.18 263.11 112.82 262.46 112.64 262.16L112.57 262.16L112.57 265.04ZM121.05 262.26C120.88 262.61 120.38 263.12 119.43 263.12C118.39 263.12 117.57 262.51 117.57 261.45C117.57 260.2 118.67 259.97 119.68 259.84C120.68 259.71 121.09 259.75 121.09 259.35L121.09 259.32C121.09 258.62 120.71 258.21 119.94 258.21C119.14 258.21 118.7 258.64 118.52 259.03L117.72 258.75C118.15 257.75 119.09 257.47 119.91 257.47C120.61 257.47 121.93 257.67 121.93 259.4L121.93 263L121.09 263L121.09 262.26L121.05 262.26ZM129.67 263L128.83 263L128.83 257.54L129.64 257.54L129.64 258.39L129.71 258.39C129.94 257.81 130.46 257.47 131.17 257.47C131.89 257.47 132.37 257.81 132.64 258.39L132.7 258.39C132.98 257.83 133.55 257.47 134.33 257.47C135.3 257.47 135.99 258.06 135.99 259.35L135.99 263L135.15 263L135.15 259.35C135.15 258.54 134.64 258.22 134.04 258.22C133.28 258.22 132.84 258.74 132.84 259.44L132.84 263L131.98 263L131.98 259.26C131.98 258.64 131.54 258.22 130.91 258.22C130.25 258.22 129.67 258.79 129.67 259.59L129.67 263ZM141.98 261.73C141.73 262.56 140.92 263.11 139.81 263.11C138.23 263.11 137.27 261.99 137.27 260.31C137.27 258.64 138.25 257.47 139.73 257.47C140.86 257.47 142.07 258.17 142.07 260.2L142.07 260.55L138.11 260.55C138.15 261.72 138.83 262.35 139.81 262.35C140.47 262.35 140.96 262.07 141.17 261.5L141.98 261.73ZM145.58 258.22C144.78 258.22 144.18 258.76 144.18 259.71L144.18 263L143.35 263L143.35 257.54L144.16 257.54L144.16 258.39L144.23 258.39C144.49 257.84 145 257.47 145.82 257.47C146.92 257.47 147.67 258.14 147.67 259.53L147.67 263L146.83 263L146.83 259.59C146.83 258.73 146.36 258.22 145.58 258.22ZM164.78 262.26C164.61 262.61 164.11 263.12 163.16 263.12C162.13 263.12 161.3 262.51 161.3 261.45C161.3 260.2 162.41 259.97 163.42 259.84C164.41 259.71 164.82 259.75 164.82 259.35L164.82 259.32C164.82 258.62 164.45 258.21 163.67 258.21C162.88 258.21 162.44 258.64 162.25 259.03L161.46 258.75C161.88 257.75 162.82 257.47 163.64 257.47C164.34 257.47 165.66 257.67 165.66 259.4L165.66 263L164.82 263L164.82 262.26L164.78 262.26ZM169.13 257.47C170.21 257.47 170.8 257.99 171.06 258.76L170.31 258.97C170.16 258.6 169.86 258.19 169.13 258.19C168.46 258.19 167.96 258.54 167.96 259C167.96 259.42 168.26 259.64 168.9 259.8L169.71 260C170.69 260.24 171.16 260.72 171.16 261.47C171.16 262.42 170.3 263.11 169.03 263.11C167.91 263.11 167.15 262.61 166.96 261.69L167.75 261.49C167.9 262.07 168.33 262.37 169.02 262.37C169.8 262.37 170.29 261.99 170.29 261.52C170.29 261.14 170.03 260.88 169.48 260.75L168.58 260.54C167.57 260.3 167.13 259.8 167.13 259.05C167.13 258.12 167.98 257.47 169.13 257.47ZM185.9 261.73C185.65 262.56 184.84 263.11 183.73 263.11C182.15 263.11 181.19 261.99 181.19 260.31C181.19 258.64 182.17 257.47 183.65 257.47C184.78 257.47 185.99 258.17 185.99 260.2L185.99 260.55L182.03 260.55C182.07 261.72 182.75 262.35 183.73 262.35C184.39 262.35 184.88 262.07 185.09 261.5L185.9 261.73ZM191.73 261.73C191.47 262.56 190.66 263.11 189.56 263.11C187.98 263.11 187.01 261.99 187.01 260.31C187.01 258.64 187.99 257.47 189.47 257.47C190.61 257.47 191.81 258.17 191.81 260.2L191.81 260.55L187.85 260.55C187.89 261.72 188.57 262.35 189.56 262.35C190.21 262.35 190.71 262.07 190.92 261.5L191.73 261.73ZM195.32 258.22C194.52 258.22 193.93 258.76 193.93 259.71L193.93 263L193.09 263L193.09 257.54L193.9 257.54L193.9 258.39L193.97 258.39C194.23 257.84 194.74 257.47 195.56 257.47C196.67 257.47 197.41 258.14 197.41 259.53L197.41 263L196.57 263L196.57 259.59C196.57 258.73 196.1 258.22 195.32 258.22ZM202.59 265.04L201.76 265.04L201.76 257.54L202.57 257.54L202.57 258.41L202.67 258.41C202.85 258.12 203.18 257.47 204.24 257.47C205.62 257.47 206.57 258.56 206.57 260.28C206.57 262.02 205.62 263.11 204.26 263.11C203.21 263.11 202.85 262.46 202.67 262.16L202.59 262.16L202.59 265.04ZM216.09 260.3C216.09 261.99 215.1 263.11 213.62 263.11C212.14 263.11 211.14 261.99 211.14 260.3C211.14 258.59 212.14 257.47 213.62 257.47C215.1 257.47 216.09 258.59 216.09 260.3ZM221.73 261.4C221.59 262.37 220.79 263.11 219.58 263.11C218.05 263.11 217.11 261.93 217.11 260.3C217.11 258.64 218.09 257.47 219.57 257.47C220.72 257.47 221.59 258.15 221.73 259.17L220.89 259.17C220.76 258.68 220.32 258.22 219.58 258.22C218.6 258.22 217.95 259.03 217.95 260.27C217.95 261.53 218.59 262.35 219.58 262.35C220.24 262.35 220.73 262 220.89 261.4L221.73 261.4ZM227.41 261.73C227.15 262.56 226.35 263.11 225.24 263.11C223.66 263.11 222.69 261.99 222.69 260.31C222.69 258.64 223.67 257.47 225.15 257.47C226.29 257.47 227.5 258.17 227.5 260.2L227.5 260.55L223.54 260.55C223.57 261.72 224.25 262.35 225.24 262.35C225.89 262.35 226.39 262.07 226.6 261.5L227.41 261.73ZM230.7 257.47C231.79 257.47 232.37 257.99 232.64 258.76L231.88 258.97C231.74 258.6 231.44 258.19 230.7 258.19C230.04 258.19 229.54 258.54 229.54 259C229.54 259.42 229.83 259.64 230.48 259.8L231.29 260C232.26 260.24 232.74 260.72 232.74 261.47C232.74 262.42 231.87 263.11 230.61 263.11C229.49 263.11 228.73 262.61 228.53 261.69L229.33 261.49C229.48 262.07 229.91 262.37 230.59 262.37C231.37 262.37 231.87 261.99 231.87 261.52C231.87 261.14 231.61 260.88 231.06 260.75L230.15 260.54C229.15 260.3 228.7 259.8 228.7 259.05C228.7 258.12 229.55 257.47 230.7 257.47ZM235.93 257.47C237.01 257.47 237.6 257.99 237.87 258.76L237.11 258.97C236.97 258.6 236.66 258.19 235.93 258.19C235.27 258.19 234.77 258.54 234.77 259C234.77 259.42 235.06 259.64 235.7 259.8L236.52 260C237.49 260.24 237.96 260.72 237.96 261.47C237.96 262.42 237.1 263.11 235.83 263.11C234.72 263.11 233.95 262.61 233.76 261.69L234.55 261.49C234.7 262.07 235.13 262.37 235.82 262.37C236.6 262.37 237.1 261.99 237.1 261.52C237.1 261.14 236.84 260.88 236.29 260.75L235.38 260.54C234.38 260.3 233.93 259.8 233.93 259.05C233.93 258.12 234.78 257.47 235.93 257.47ZM243.69 261.73C243.43 262.56 242.62 263.11 241.52 263.11C239.94 263.11 238.97 261.99 238.97 260.31C238.97 258.64 239.95 257.47 241.43 257.47C242.57 257.47 243.77 258.17 243.77 260.2L243.77 260.55L239.81 260.55C239.85 261.72 240.53 262.35 241.52 262.35C242.17 262.35 242.67 262.07 242.88 261.5L243.69 261.73ZM273.62 261.73C273.36 262.56 272.55 263.11 271.44 263.11C269.87 263.11 268.9 261.99 268.9 260.31C268.9 258.64 269.88 257.47 271.36 257.47C272.49 257.47 273.7 258.17 273.7 260.2L273.7 260.55L269.74 260.55C269.78 261.72 270.46 262.35 271.44 262.35C272.1 262.35 272.59 262.07 272.81 261.5L273.62 261.73ZM125.41 263.79C125.09 264.64 124.56 265.04 123.8 265.04C123.52 265.04 123.28 264.99 123.19 264.94L123.4 264.2C124.02 264.36 124.39 264.28 124.7 263.45L124.85 263.02L122.84 257.54L123.75 257.54L125.25 261.89L125.31 261.89L126.81 257.54L127.72 257.54L125.41 263.79ZM105.29 258.22C104.33 258.22 103.73 258.98 103.68 259.83L106.79 259.83C106.79 258.9 106.2 258.22 105.29 258.22ZM114.12 258.22C113.09 258.22 112.55 259.05 112.55 260.27C112.55 261.5 113.11 262.35 114.12 262.35C115.17 262.35 115.71 261.43 115.71 260.27C115.71 259.12 115.18 258.22 114.12 258.22ZM139.73 258.22C138.77 258.22 138.17 258.98 138.11 259.83L141.22 259.83C141.22 258.9 140.63 258.22 139.73 258.22ZM177.74 258.22C176.71 258.22 176.17 259.05 176.17 260.27C176.17 261.5 176.73 262.35 177.74 262.35C178.79 262.35 179.33 261.43 179.33 260.27C179.33 259.12 178.8 258.22 177.74 258.22ZM183.65 258.22C182.69 258.22 182.09 258.98 182.03 259.83L185.14 259.83C185.14 258.9 184.55 258.22 183.65 258.22ZM189.47 258.22C188.51 258.22 187.91 258.98 187.85 259.83L190.96 259.83C190.96 258.9 190.38 258.22 189.47 258.22ZM204.14 258.22C203.12 258.22 202.58 259.05 202.58 260.27C202.58 261.5 203.14 262.35 204.14 262.35C205.19 262.35 205.73 261.43 205.73 260.27C205.73 259.12 205.21 258.22 204.14 258.22ZM211.98 260.3C211.98 261.39 212.5 262.35 213.62 262.35C214.74 262.35 215.25 261.39 215.25 260.3C215.25 259.2 214.74 258.22 213.62 258.22C212.5 258.22 211.98 259.2 211.98 260.3ZM225.15 258.22C224.19 258.22 223.59 258.98 223.54 259.83L226.64 259.83C226.64 258.9 226.06 258.22 225.15 258.22ZM241.43 258.22C240.47 258.22 239.87 258.98 239.81 259.83L242.92 259.83C242.92 258.9 242.34 258.22 241.43 258.22ZM245.64 260.27C245.64 261.43 246.17 262.35 247.22 262.35C248.23 262.35 248.79 261.5 248.79 260.27C248.79 259.05 248.25 258.22 247.22 258.22C246.16 258.22 245.64 259.12 245.64 260.27ZM271.36 258.22C270.4 258.22 269.8 258.98 269.74 259.83L272.85 259.83C272.85 258.9 272.27 258.22 271.36 258.22ZM118.41 261.49C118.41 262.07 118.89 262.37 119.56 262.37C120.55 262.37 121.09 261.7 121.09 261.02L121.09 260.25C120.95 260.42 119.99 260.52 119.64 260.57C118.99 260.65 118.41 260.85 118.41 261.49ZM162.14 261.49C162.14 262.07 162.62 262.37 163.29 262.37C164.28 262.37 164.82 261.7 164.82 261.02L164.82 260.25C164.68 260.42 163.73 260.52 163.38 260.57C162.72 260.65 162.14 260.85 162.14 261.49ZM252.51 262.41C252.51 262.76 252.22 263.05 251.87 263.05C251.52 263.05 251.23 262.76 251.23 262.41C251.23 262.06 251.52 261.77 251.87 261.77C252.22 261.77 252.51 262.06 252.51 262.41ZM202.44 271.54L203.66 271.54L203.66 272.25L202.44 272.25L202.44 277L201.6 277L201.6 272.25L200.72 272.25L200.72 271.54L201.6 271.54L201.6 270.79C201.6 269.85 202.35 269.38 203.14 269.38C203.55 269.38 203.8 269.47 203.93 269.52L203.69 270.25C203.6 270.22 203.46 270.16 203.22 270.16C202.67 270.16 202.44 270.45 202.44 270.99L202.44 271.54ZM109.58 269.72L110.42 269.72L110.42 277L109.58 277L109.58 269.72ZM156.83 276.16C156.64 276.46 156.29 277.11 155.24 277.11C153.87 277.11 152.92 276.02 152.92 274.28C152.92 272.56 153.87 271.47 155.25 271.47C156.32 271.47 156.64 272.12 156.83 272.41L156.9 272.41L156.9 269.72L157.74 269.72L157.74 277L156.93 277L156.93 276.16L156.83 276.16ZM168.86 276.16C168.67 276.46 168.32 277.11 167.27 277.11C165.9 277.11 164.95 276.02 164.95 274.28C164.95 272.56 165.9 271.47 167.28 271.47C168.35 271.47 168.67 272.12 168.86 272.41L168.93 272.41L168.93 269.72L169.77 269.72L169.77 277L168.96 277L168.96 276.16L168.86 276.16ZM195.86 276.16C195.68 276.46 195.32 277.11 194.27 277.11C192.91 277.11 191.95 276.02 191.95 274.28C191.95 272.56 192.91 271.47 194.29 271.47C195.35 271.47 195.68 272.12 195.86 272.41L195.93 272.41L195.93 269.72L196.77 269.72L196.77 277L195.96 277L195.96 276.16L195.86 276.16ZM91.97 271.54L93.13 271.54L93.13 272.25L91.97 272.25L91.97 275.43C91.97 276.14 92.32 276.26 92.69 276.26C92.88 276.26 92.99 276.23 93.06 276.21L93.23 276.97C93.12 277.01 92.92 277.07 92.61 277.07C91.9 277.07 91.13 276.61 91.13 275.66L91.13 272.25L90.31 272.25L90.31 271.54L91.13 271.54L91.13 270.24L91.97 270.24L91.97 271.54ZM101.52 271.54L102.68 271.54L102.68 272.25L101.52 272.25L101.52 275.43C101.52 276.14 101.87 276.26 102.24 276.26C102.42 276.26 102.54 276.23 102.61 276.21L102.78 276.97C102.67 277.01 102.47 277.07 102.16 277.07C101.45 277.07 100.68 276.61 100.68 275.66L100.68 272.25L99.85 272.25L99.85 271.54L100.68 271.54L100.68 270.24L101.52 270.24L101.52 271.54ZM147.94 271.54L149.1 271.54L149.1 272.25L147.94 272.25L147.94 275.43C147.94 276.14 148.29 276.26 148.66 276.26C148.84 276.26 148.96 276.23 149.03 276.21L149.2 276.97C149.09 277.01 148.89 277.07 148.58 277.07C147.87 277.07 147.1 276.61 147.1 275.66L147.1 272.25L146.27 272.25L146.27 271.54L147.1 271.54L147.1 270.24L147.94 270.24L147.94 271.54ZM184.02 271.54L185.18 271.54L185.18 272.25L184.02 272.25L184.02 275.43C184.02 276.14 184.37 276.26 184.74 276.26C184.92 276.26 185.04 276.23 185.11 276.21L185.28 276.97C185.17 277.01 184.97 277.07 184.66 277.07C183.95 277.07 183.18 276.61 183.18 275.66L183.18 272.25L182.35 272.25L182.35 271.54L183.18 271.54L183.18 270.24L184.02 270.24L184.02 271.54ZM205.68 277L204.84 277L204.84 271.54L205.65 271.54L205.65 272.36L205.71 272.36C205.91 271.82 206.47 271.46 207.13 271.46C207.25 271.46 207.47 271.46 207.57 271.47L207.57 272.32C207.51 272.31 207.28 272.27 207.06 272.27C206.26 272.27 205.68 272.81 205.68 273.54L205.68 277ZM243.84 277L243.01 277L243.01 271.54L243.82 271.54L243.82 272.36L243.87 272.36C244.07 271.82 244.64 271.46 245.29 271.46C245.42 271.46 245.64 271.46 245.73 271.47L245.73 272.32C245.68 272.31 245.45 272.27 245.22 272.27C244.43 272.27 243.84 272.81 243.84 273.54L243.84 277ZM99.03 274.3C99.03 275.99 98.04 277.11 96.56 277.11C95.08 277.11 94.08 275.99 94.08 274.3C94.08 272.59 95.08 271.47 96.56 271.47C98.04 271.47 99.03 272.59 99.03 274.3ZM107.17 276.26C107 276.61 106.5 277.12 105.55 277.12C104.51 277.12 103.69 276.51 103.69 275.45C103.69 274.2 104.79 273.97 105.8 273.84C106.8 273.71 107.21 273.75 107.21 273.35L107.21 273.32C107.21 272.62 106.83 272.21 106.06 272.21C105.26 272.21 104.83 272.64 104.64 273.03L103.84 272.75C104.27 271.75 105.21 271.47 106.03 271.47C106.73 271.47 108.05 271.67 108.05 273.4L108.05 277L107.21 277L107.21 276.26L107.17 276.26ZM117.99 276.26C117.82 276.61 117.32 277.12 116.37 277.12C115.34 277.12 114.51 276.51 114.51 275.45C114.51 274.2 115.62 273.97 116.63 273.84C117.62 273.71 118.03 273.75 118.03 273.35L118.03 273.32C118.03 272.62 117.66 272.21 116.88 272.21C116.09 272.21 115.65 272.64 115.46 273.03L114.67 272.75C115.09 271.75 116.03 271.47 116.86 271.47C117.55 271.47 118.87 271.67 118.87 273.4L118.87 277L118.03 277L118.03 276.26L117.99 276.26ZM121.24 277L120.41 277L120.41 271.54L121.22 271.54L121.22 272.39L121.29 272.39C121.52 271.81 122.04 271.47 122.75 271.47C123.47 271.47 123.94 271.81 124.21 272.39L124.27 272.39C124.55 271.83 125.12 271.47 125.91 271.47C126.88 271.47 127.57 272.06 127.57 273.35L127.57 277L126.73 277L126.73 273.35C126.73 272.54 126.22 272.22 125.62 272.22C124.85 272.22 124.41 272.74 124.41 273.44L124.41 277L123.56 277L123.56 273.26C123.56 272.64 123.12 272.22 122.48 272.22C121.83 272.22 121.24 272.79 121.24 273.59L121.24 277ZM133.79 274.3C133.79 275.99 132.79 277.11 131.32 277.11C129.84 277.11 128.84 275.99 128.84 274.3C128.84 272.59 129.84 271.47 131.32 271.47C132.79 271.47 133.79 272.59 133.79 274.3ZM143.11 272.22C142.3 272.22 141.71 272.76 141.71 273.71L141.71 277L140.88 277L140.88 271.54L141.69 271.54L141.69 272.39L141.76 272.39C142.01 271.84 142.52 271.47 143.35 271.47C144.45 271.47 145.19 272.14 145.19 273.53L145.19 277L144.36 277L144.36 273.59C144.36 272.73 143.88 272.22 143.11 272.22ZM163.84 275.73C163.59 276.56 162.78 277.11 161.67 277.11C160.09 277.11 159.13 275.99 159.13 274.31C159.13 272.64 160.11 271.47 161.59 271.47C162.72 271.47 163.93 272.17 163.93 274.2L163.93 274.55L159.97 274.55C160.01 275.72 160.69 276.35 161.67 276.35C162.33 276.35 162.82 276.07 163.03 275.5L163.84 275.73ZM181.59 275.4C181.44 276.37 180.65 277.11 179.44 277.11C177.91 277.11 176.97 275.93 176.97 274.3C176.97 272.64 177.95 271.47 179.43 271.47C180.58 271.47 181.44 272.15 181.59 273.17L180.75 273.17C180.62 272.68 180.18 272.22 179.44 272.22C178.46 272.22 177.81 273.03 177.81 274.27C177.81 275.53 178.45 276.35 179.44 276.35C180.09 276.35 180.59 276 180.75 275.4L181.59 275.4ZM190.85 275.73C190.59 276.56 189.78 277.11 188.67 277.11C187.1 277.11 186.13 275.99 186.13 274.31C186.13 272.64 187.11 271.47 188.59 271.47C189.72 271.47 190.93 272.17 190.93 274.2L190.93 274.55L186.97 274.55C187.01 275.72 187.69 276.35 188.67 276.35C189.33 276.35 189.82 276.07 190.04 275.5L190.85 275.73ZM213.08 274.3C213.08 275.99 212.08 277.11 210.61 277.11C209.13 277.11 208.13 275.99 208.13 274.3C208.13 272.59 209.13 271.47 210.61 271.47C212.08 271.47 213.08 272.59 213.08 274.3ZM215.19 277L214.36 277L214.36 271.54L215.17 271.54L215.17 272.39L215.24 272.39C215.46 271.81 215.99 271.47 216.7 271.47C217.42 271.47 217.89 271.81 218.16 272.39L218.22 272.39C218.5 271.83 219.07 271.47 219.85 271.47C220.83 271.47 221.52 272.06 221.52 273.35L221.52 277L220.68 277L220.68 273.35C220.68 272.54 220.17 272.22 219.57 272.22C218.8 272.22 218.36 272.74 218.36 273.44L218.36 277L217.51 277L217.51 273.26C217.51 272.64 217.07 272.22 216.43 272.22C215.78 272.22 215.19 272.79 215.19 273.59L215.19 277ZM235.92 274.3C235.92 275.99 234.92 277.11 233.45 277.11C231.97 277.11 230.97 275.99 230.97 274.3C230.97 272.59 231.97 271.47 233.45 271.47C234.92 271.47 235.92 272.59 235.92 274.3ZM137.1 276.26C137.72 276.26 138.5 275.79 138.5 274.77L138.5 271.54L139.34 271.54L139.34 277L138.5 277L138.5 276.07L138.45 276.07C138.19 276.63 137.65 277.07 136.83 277.07C135.81 277.07 135.07 276.4 135.07 275.01L135.07 271.54L135.9 271.54L135.9 274.95C135.9 275.75 136.4 276.26 137.1 276.26ZM173.45 276.26C174.07 276.26 174.85 275.79 174.85 274.77L174.85 271.54L175.69 271.54L175.69 277L174.85 277L174.85 276.07L174.8 276.07C174.54 276.63 174 277.07 173.18 277.07C172.16 277.07 171.42 276.4 171.42 275.01L171.42 271.54L172.25 271.54L172.25 274.95C172.25 275.75 172.75 276.26 173.45 276.26ZM228.01 277.79C227.69 278.64 227.16 279.04 226.4 279.04C226.12 279.04 225.88 278.99 225.79 278.94L226 278.2C226.62 278.36 226.99 278.28 227.3 277.45L227.45 277.02L225.44 271.54L226.34 271.54L227.85 275.89L227.91 275.89L229.41 271.54L230.32 271.54L228.01 277.79ZM239.23 276.26C239.85 276.26 240.63 275.79 240.63 274.77L240.63 271.54L241.47 271.54L241.47 277L240.63 277L240.63 276.07L240.58 276.07C240.32 276.63 239.78 277.07 238.96 277.07C237.94 277.07 237.2 276.4 237.2 275.01L237.2 271.54L238.03 271.54L238.03 274.95C238.03 275.75 238.53 276.26 239.23 276.26ZM94.92 274.3C94.92 275.39 95.43 276.35 96.56 276.35C97.68 276.35 98.19 275.39 98.19 274.3C98.19 273.2 97.68 272.22 96.56 272.22C95.43 272.22 94.92 273.2 94.92 274.3ZM129.68 274.3C129.68 275.39 130.19 276.35 131.32 276.35C132.44 276.35 132.95 275.39 132.95 274.3C132.95 273.2 132.44 272.22 131.32 272.22C130.19 272.22 129.68 273.2 129.68 274.3ZM153.76 274.27C153.76 275.43 154.3 276.35 155.35 276.35C156.36 276.35 156.91 275.5 156.91 274.27C156.91 273.05 156.37 272.22 155.35 272.22C154.28 272.22 153.76 273.12 153.76 274.27ZM161.59 272.22C160.63 272.22 160.03 272.98 159.97 273.83L163.08 273.83C163.08 272.9 162.49 272.22 161.59 272.22ZM165.79 274.27C165.79 275.43 166.33 276.35 167.38 276.35C168.39 276.35 168.94 275.5 168.94 274.27C168.94 273.05 168.4 272.22 167.38 272.22C166.32 272.22 165.79 273.12 165.79 274.27ZM188.59 272.22C187.63 272.22 187.03 272.98 186.97 273.83L190.08 273.83C190.08 272.9 189.5 272.22 188.59 272.22ZM192.79 274.27C192.79 275.43 193.33 276.35 194.38 276.35C195.39 276.35 195.95 275.5 195.95 274.27C195.95 273.05 195.41 272.22 194.38 272.22C193.32 272.22 192.79 273.12 192.79 274.27ZM208.97 274.3C208.97 275.39 209.48 276.35 210.61 276.35C211.73 276.35 212.24 275.39 212.24 274.3C212.24 273.2 211.73 272.22 210.61 272.22C209.48 272.22 208.97 273.2 208.97 274.3ZM231.81 274.3C231.81 275.39 232.32 276.35 233.45 276.35C234.57 276.35 235.08 275.39 235.08 274.3C235.08 273.2 234.57 272.22 233.45 272.22C232.32 272.22 231.81 273.2 231.81 274.3ZM104.53 275.49C104.53 276.07 105.01 276.37 105.68 276.37C106.67 276.37 107.21 275.7 107.21 275.02L107.21 274.25C107.07 274.42 106.12 274.52 105.76 274.57C105.11 274.65 104.53 274.85 104.53 275.49ZM115.35 275.49C115.35 276.07 115.83 276.37 116.5 276.37C117.49 276.37 118.03 275.7 118.03 275.02L118.03 274.25C117.89 274.42 116.94 274.52 116.59 274.57C115.93 274.65 115.35 274.85 115.35 275.49ZM160.57 291.9L159.99 291.9L159.99 291.09C158.39 291 157.39 290.2 157.35 288.71L158.84 288.71C158.88 289.35 159.34 289.72 159.99 289.79L159.99 287.92L159.53 287.81C158.3 287.51 157.54 286.9 157.54 285.82C157.54 284.59 158.56 283.74 159.99 283.63L159.99 282.81L160.57 282.81L160.57 283.63C162.04 283.73 162.99 284.59 163.01 285.81L161.53 285.81C161.48 285.32 161.14 285 160.57 284.93L160.57 286.7L160.92 286.78C162.19 287.06 163.1 287.71 163.11 288.92C163.1 290.18 162.17 291 160.57 291.09L160.57 291.9ZM132.67 284.06C132.67 284.38 132.4 284.63 132.07 284.63C131.74 284.63 131.47 284.38 131.47 284.06C131.47 283.75 131.74 283.5 132.07 283.5C132.4 283.5 132.67 283.75 132.67 284.06ZM185.27 286.14C185.26 284.68 186.36 283.62 187.98 283.62C189.48 283.63 190.89 284.54 190.89 287.17C190.9 289.64 189.73 291.1 187.93 291.1C186.48 291.1 185.48 290.17 185.34 288.94L186.86 288.94C186.97 289.47 187.37 289.78 187.93 289.78C188.88 289.78 189.38 288.9 189.38 287.46L189.33 287.46C189.01 288.1 188.3 288.49 187.5 288.49C186.21 288.49 185.27 287.5 185.27 286.14ZM154.14 285.81L152.67 285.81C152.61 285.24 152.16 284.91 151.42 284.91C150.67 284.91 150.25 285.25 150.25 285.72C150.24 286.24 150.77 286.48 151.41 286.62L152.06 286.78C153.32 287.06 154.24 287.71 154.24 288.92C154.24 290.25 153.19 291.1 151.42 291.1C149.65 291.1 148.53 290.29 148.49 288.71L149.97 288.71C150.02 289.44 150.6 289.81 151.4 289.81C152.18 289.81 152.68 289.45 152.69 288.92C152.68 288.42 152.24 288.2 151.45 288L150.66 287.81C149.43 287.51 148.67 286.9 148.68 285.82C148.67 284.5 149.84 283.62 151.43 283.62C153.05 283.62 154.12 284.52 154.14 285.81ZM174.77 287.37C174.77 289.76 173.67 291.15 171.84 291.15C170.01 291.15 168.9 289.76 168.9 287.37C168.91 284.98 170.01 283.62 171.84 283.62C173.66 283.62 174.78 284.99 174.77 287.37ZM197.74 287.37C197.74 289.76 196.64 291.15 194.81 291.15C192.98 291.15 191.86 289.76 191.87 287.37C191.87 284.98 192.98 283.62 194.81 283.62C196.63 283.62 197.75 284.99 197.74 287.37ZM145.92 288.31L145.92 283.72L147.46 283.72L147.46 288.45C147.46 290.04 146.25 291.1 144.44 291.1C142.63 291.1 141.43 290.04 141.43 288.45L141.43 283.72L142.96 283.72L142.96 288.31C142.96 289.14 143.55 289.75 144.44 289.75C145.34 289.75 145.92 289.14 145.92 288.31ZM165.81 283.72L167.26 283.72L167.26 291L165.72 291L165.72 285.18L165.68 285.18L164.01 286.23L164.01 284.86L165.81 283.72ZM179.25 289.72L175.76 289.72L175.76 288.51L178.8 283.72L180.72 283.72L180.72 288.49L181.62 288.49L181.62 289.72L180.72 289.72L180.72 291L179.25 291L179.25 289.72ZM126.4 285.54L127.57 285.54L127.57 286.25L126.4 286.25L126.4 289.43C126.4 290.14 126.76 290.26 127.13 290.26C127.31 290.26 127.43 290.23 127.5 290.21L127.67 290.97C127.55 291.01 127.35 291.07 127.04 291.07C126.33 291.07 125.56 290.61 125.56 289.66L125.56 286.25L124.74 286.25L124.74 285.54L125.56 285.54L125.56 284.24L126.4 284.24L126.4 285.54ZM189.23 286.1C189.23 285.41 188.7 284.83 188 284.83C187.28 284.83 186.75 285.39 186.76 286.1C186.76 286.82 187.27 287.37 187.98 287.37C188.69 287.37 189.23 286.79 189.23 286.1ZM170.47 287.37C170.47 289.04 171 289.88 171.84 289.88C172.67 289.88 173.21 289.04 173.2 287.37C173.2 285.71 172.67 284.88 171.84 284.88C171.01 284.88 170.47 285.71 170.47 287.37ZM193.44 287.37C193.43 289.04 193.97 289.88 194.81 289.88C195.64 289.88 196.18 289.04 196.17 287.37C196.17 285.71 195.63 284.88 194.81 284.88C193.98 284.88 193.44 285.71 193.44 287.37ZM159.12 285.72C159.11 286.16 159.49 286.4 159.99 286.55L159.99 284.93C159.43 285.01 159.12 285.32 159.12 285.72ZM177.31 288.49L179.28 288.49L179.28 285.4L179.22 285.4L177.31 288.43L177.31 288.49ZM93.99 290.26C93.82 290.61 93.32 291.12 92.37 291.12C91.33 291.12 90.51 290.51 90.51 289.45C90.51 288.2 91.61 287.97 92.62 287.84C93.62 287.71 94.03 287.75 94.03 287.35L94.03 287.32C94.03 286.62 93.65 286.21 92.88 286.21C92.08 286.21 91.64 286.64 91.46 287.03L90.66 286.75C91.09 285.75 92.03 285.47 92.85 285.47C93.55 285.47 94.87 285.67 94.87 287.4L94.87 291L94.03 291L94.03 290.26L93.99 290.26ZM100.76 289.4C100.62 290.37 99.82 291.11 98.62 291.11C97.08 291.11 96.14 289.93 96.14 288.3C96.14 286.64 97.13 285.47 98.6 285.47C99.75 285.47 100.62 286.15 100.76 287.17L99.92 287.17C99.8 286.68 99.35 286.22 98.62 286.22C97.64 286.22 96.98 287.03 96.98 288.27C96.98 289.53 97.62 290.35 98.62 290.35C99.27 290.35 99.77 290 99.92 289.4L100.76 289.4ZM106.34 289.4C106.2 290.37 105.41 291.11 104.2 291.11C102.66 291.11 101.73 289.93 101.73 288.3C101.73 286.64 102.71 285.47 104.19 285.47C105.34 285.47 106.2 286.15 106.34 287.17L105.51 287.17C105.38 286.68 104.94 286.22 104.2 286.22C103.22 286.22 102.57 287.03 102.57 288.27C102.57 289.53 103.21 290.35 104.2 290.35C104.85 290.35 105.35 290 105.51 289.4L106.34 289.4ZM112.25 288.3C112.25 289.99 111.26 291.11 109.78 291.11C108.31 291.11 107.31 289.99 107.31 288.3C107.31 286.59 108.31 285.47 109.78 285.47C111.26 285.47 112.25 286.59 112.25 288.3ZM121.57 286.22C120.77 286.22 120.18 286.76 120.18 287.71L120.18 291L119.34 291L119.34 285.54L120.15 285.54L120.15 286.39L120.22 286.39C120.48 285.84 120.99 285.47 121.81 285.47C122.92 285.47 123.66 286.14 123.66 287.53L123.66 291L122.82 291L122.82 287.59C122.82 286.73 122.35 286.22 121.57 286.22ZM135.95 285.47C137.03 285.47 137.62 285.99 137.88 286.76L137.13 286.97C136.98 286.6 136.68 286.19 135.95 286.19C135.28 286.19 134.78 286.54 134.78 287C134.78 287.42 135.07 287.64 135.72 287.8L136.53 288C137.5 288.24 137.98 288.72 137.98 289.47C137.98 290.42 137.12 291.11 135.85 291.11C134.73 291.11 133.97 290.61 133.77 289.69L134.57 289.49C134.72 290.07 135.15 290.37 135.83 290.37C136.62 290.37 137.11 289.99 137.11 289.52C137.11 289.14 136.85 288.88 136.3 288.75L135.39 288.54C134.39 288.3 133.94 287.8 133.94 287.05C133.94 286.12 134.8 285.47 135.95 285.47ZM115.56 290.26C116.19 290.26 116.97 289.79 116.97 288.77L116.97 285.54L117.81 285.54L117.81 291L116.97 291L116.97 290.07L116.91 290.07C116.66 290.63 116.12 291.07 115.29 291.07C114.27 291.07 113.53 290.4 113.53 289.01L113.53 285.54L114.37 285.54L114.37 288.95C114.37 289.75 114.87 290.26 115.56 290.26ZM132.48 291L131.64 291L131.64 285.54L132.48 285.54L132.48 291ZM108.15 288.3C108.15 289.39 108.66 290.35 109.78 290.35C110.9 290.35 111.42 289.39 111.42 288.3C111.42 287.2 110.9 286.22 109.78 286.22C108.66 286.22 108.15 287.2 108.15 288.3ZM160.57 288.07L160.57 289.79C161.17 289.71 161.55 289.37 161.56 288.92C161.55 288.48 161.2 288.25 160.57 288.07ZM91.35 289.49C91.35 290.07 91.83 290.37 92.5 290.37C93.49 290.37 94.03 289.7 94.03 289.02L94.03 288.25C93.89 288.42 92.93 288.52 92.58 288.57C91.93 288.65 91.35 288.85 91.35 289.49ZM184.27 290.24C184.26 290.71 183.87 291.09 183.41 291.09C182.94 291.09 182.56 290.71 182.56 290.24C182.56 289.77 182.94 289.39 183.41 289.39C183.87 289.39 184.26 289.77 184.27 290.24ZM200.26 290.41C200.26 290.76 199.98 291.05 199.63 291.05C199.27 291.05 198.99 290.76 198.99 290.41C198.99 290.06 199.27 289.77 199.63 289.77C199.98 289.77 200.26 290.06 200.26 290.41Z" fill="#36536B" fill-opacity="1.000000" fill-rule="evenodd"/>
	</g>
	<rect id="Group 29" width="218.000000" height="87.000000" transform="translate(74.000000 221.000000)" stroke="#979797" stroke-opacity="1.000000" stroke-width="1.000000"/>
</svg>
